<svg width="21" height="21" viewBox="0 0 21 21" fill="none" xmlns="http://www.w3.org/2000/svg">
<path d="M18.375 10.5C18.375 14.8492 14.8492 18.375 10.5 18.375C9.4525 18.375 8.45277 18.1705 7.53855 17.7992C7.36358 17.7281 7.2761 17.6926 7.20538 17.6768C7.1362 17.6612 7.08501 17.6556 7.01412 17.6556C6.94164 17.6556 6.8627 17.6687 6.70482 17.695L3.59167 18.2139C3.26566 18.2682 3.10266 18.2954 2.98479 18.2448C2.88162 18.2006 2.79941 18.1184 2.75517 18.0152C2.70461 17.8973 2.73178 17.7343 2.78611 17.4083L3.30497 14.2952C3.33128 14.1373 3.34444 14.0584 3.34443 13.9859C3.34442 13.915 3.33875 13.8638 3.32325 13.7946C3.30739 13.7239 3.27186 13.6364 3.2008 13.4614C2.82952 12.5472 2.625 11.5475 2.625 10.5C2.625 6.15076 6.15076 2.625 10.5 2.625C14.8492 2.625 18.375 6.15076 18.375 10.5Z" stroke="black" stroke-width="2" stroke-linecap="round" stroke-linejoin="round"/>
</svg>
