<svg width="24" height="24" viewBox="0 0 24 24" fill="none" xmlns="http://www.w3.org/2000/svg">
    <path d="M1.30103 10.6998C1.59393 10.4069 2.06851 10.4069 2.36141 10.6998L2.36172 10.7001C3.20829 11.5467 4.1953 12.2379 5.27747 12.739C6.35965 13.2402 7.52328 13.5426 8.70829 13.6309C9.89329 13.7192 11.0854 13.5918 12.2279 13.2561C13.3705 12.9203 14.4438 12.3824 15.3924 11.6697L15.3924 11.6697C15.6853 11.3768 16.1599 11.3768 16.4528 11.6697C16.7457 11.9626 16.7457 12.4372 16.4528 12.7301C15.3346 13.5943 14.0598 14.2443 12.6977 14.6441C11.3355 15.0438 9.91058 15.186 8.4979 15.0636C7.08523 14.9412 5.71221 14.5567 4.45481 13.9316C3.19742 13.3066 2.0788 12.4529 1.16203 11.4166L1.16172 11.4163C0.868823 11.1234 0.868823 10.6488 1.16172 10.3559L1.30103 10.6998ZM1.30103 10.6998L1.16172 10.5605M1.30103 10.6998L1.16172 10.5605M1.16172 10.5605C0.869323 10.8534 0.869323 11.328 1.16172 11.6209L1.16203 11.6212M1.16172 10.5605L1.16203 11.6212M1.16203 11.6212C2.08059 12.659 3.20117 13.5136 4.46073 14.139C5.72029 14.7644 7.09516 15.1494 8.50969 15.2719C9.92422 15.3944 11.3511 15.2518 12.7151 14.8513C14.0791 14.4508 15.3555 13.7999 16.4754 12.9348C16.7683 12.6419 16.7683 12.1673 16.4754 11.8744C16.1825 11.5815 15.7079 11.5815 15.415 11.8744L15.415 11.8744C14.4633 12.5889 13.3868 13.1279 12.2409 13.4646C11.0949 13.8013 9.89962 13.9294 8.71183 13.8413C7.52404 13.7532 6.35769 13.4506 5.27311 12.9487C4.18853 12.4467 3.19949 11.7544 2.35072 10.9063L2.35041 10.906C2.05751 10.6131 1.58293 10.6131 1.29003 10.906L1.16203 11.6212Z"
        fill="currentColor" />
    <path d="M4.92969 14.9297C5.22259 14.6368 5.69717 14.6368 5.99007 14.9297C6.64154 15.5812 7.40763 16.1032 8.24899 16.4686C9.09034 16.834 10.0002 17.0357 10.9226 17.0621C11.845 17.0884 12.7652 16.9387 13.6285 16.6222C14.4917 16.3057 15.2821 15.8287 15.9554 15.2188C16.2483 14.9259 16.7229 14.9259 17.0158 15.2188C17.3087 15.5117 17.3087 15.9863 17.0158 16.2792C16.1818 17.0336 15.2154 17.6301 14.1672 18.0369C13.1191 18.4437 12.0081 18.653 10.8906 18.6536C9.77307 18.6541 8.66186 18.4458 7.61334 18.0399C6.56482 17.634 5.59827 17.0381 4.76407 16.2842C4.47117 15.9913 4.47117 15.5167 4.76407 15.2238L4.92969 14.9297Z"
        fill="currentColor" />
    <path d="M8.16016 18.1602C8.45306 17.8673 8.92764 17.8673 9.22054 18.1602C9.40214 18.3418 9.62132 18.4854 9.86233 18.5825C10.1033 18.6795 10.3625 18.7278 10.6238 18.7245C10.885 18.7213 11.1429 18.6664 11.3816 18.5633C11.6202 18.4601 11.8353 18.311 12.0137 18.1254C12.3066 17.8325 12.7812 17.8325 13.0741 18.1254C13.367 18.4183 13.367 18.8929 13.0741 19.1858C12.7525 19.5154 12.3695 19.7805 11.9462 19.9668C11.5228 20.153 11.0667 20.2567 10.6048 20.2722C10.1429 20.2878 9.68154 20.2148 9.24741 20.0578C8.81329 19.9008 8.41494 19.6632 8.0742 19.3586C7.7813 19.0657 7.7813 18.5911 8.0742 18.2982L8.16016 18.1602Z"
        fill="currentColor" />
</svg>